<svg width="155" height="92" viewBox="0 0 155 92" fill="none" xmlns="http://www.w3.org/2000/svg">
<path d="M153.937 31.0312C156.177 42.5648 149.837 54.7392 137.544 65.1077C125.266 75.4639 107.135 83.9334 86.0592 88.0301C64.9835 92.1268 45.0017 91.0656 29.7401 86.0626C14.4606 81.0537 4.02474 72.1402 1.78462 60.6066C-0.455496 49.073 5.88458 36.8986 18.1775 26.5302C30.4558 16.1739 48.5865 7.70443 69.6623 3.60773C90.738 -0.488978 110.72 0.57221 125.981 5.57523C141.261 10.5842 151.697 19.4976 153.937 31.0312Z" fill="#EBE3FF" fill-opacity="0.19" stroke="#D9FF5A"/>
<path d="M35.84 40.712C36.576 41.416 36.944 42.296 36.944 43.352C36.944 44.408 36.576 45.2933 35.84 46.008C35.104 46.712 34.16 47.064 33.008 47.064H31.264V51H29.392V39.64H33.008C34.16 39.64 35.104 39.9973 35.84 40.712ZM34.528 44.76C34.912 44.3867 35.104 43.9173 35.104 43.352C35.104 42.7867 34.912 42.3227 34.528 41.96C34.1547 41.5867 33.6427 41.4 32.992 41.4H31.264V45.304H32.992C33.6427 45.304 34.1547 45.1227 34.528 44.76ZM41.845 51.16C40.6503 51.16 39.669 50.7707 38.901 49.992C38.133 49.2027 37.749 48.2053 37.749 47C37.749 45.7947 38.1277 44.8027 38.885 44.024C39.6423 43.2347 40.6343 42.84 41.861 42.84C43.0983 42.84 44.0957 43.272 44.853 44.136C45.6103 44.9893 45.9463 46.088 45.861 47.432H39.493C39.5143 48.0507 39.749 48.568 40.197 48.984C40.645 49.4 41.2157 49.608 41.909 49.608C42.8903 49.608 43.5623 49.2347 43.925 48.488H45.765C45.5197 49.2667 45.0503 49.9067 44.357 50.408C43.6637 50.9093 42.8263 51.16 41.845 51.16ZM41.813 44.312C41.237 44.312 40.741 44.4773 40.325 44.808C39.9197 45.128 39.6583 45.5867 39.541 46.184H43.973C43.845 45.5653 43.5837 45.1013 43.189 44.792C42.7943 44.472 42.3357 44.312 41.813 44.312ZM47.6684 51V43H52.9164V44.568H49.4284V51H47.6684ZM55.9395 51H54.3715V43H56.1315V48.328L60.2115 43H61.7795V51H60.0195V45.672L55.9395 51ZM67.7688 51.16C66.5634 51.16 65.5608 50.76 64.7608 49.96C63.9714 49.1493 63.5768 48.1627 63.5768 47C63.5768 45.8373 63.9714 44.856 64.7608 44.056C65.5608 43.2453 66.5634 42.84 67.7688 42.84C68.8034 42.84 69.6834 43.128 70.4088 43.704C71.1448 44.28 71.6194 45.0213 71.8328 45.928H69.9768C69.8168 45.48 69.5394 45.1227 69.1448 44.856C68.7608 44.5787 68.3021 44.44 67.7688 44.44C67.0648 44.44 66.4888 44.68 66.0408 45.16C65.5928 45.64 65.3688 46.2533 65.3688 47C65.3688 47.7467 65.5928 48.36 66.0408 48.84C66.4888 49.32 67.0648 49.56 67.7688 49.56C68.3021 49.56 68.7608 49.4267 69.1448 49.16C69.5394 48.8827 69.8168 48.52 69.9768 48.072H71.8328C71.6194 48.9787 71.1448 49.72 70.4088 50.296C69.6834 50.872 68.8034 51.16 67.7688 51.16ZM74.9064 51V44.568H72.5064V43H79.1784V44.568H76.6664V51H74.9064ZM82.4128 54.344H80.6528V43H82.4128V44.072C82.6581 43.7307 83.0101 43.4427 83.4688 43.208C83.9381 42.9627 84.4448 42.84 84.9888 42.84C86.0768 42.84 86.9888 43.2453 87.7248 44.056C88.4714 44.8667 88.8448 45.848 88.8448 47C88.8448 48.152 88.4714 49.1333 87.7248 49.944C86.9888 50.7547 86.0768 51.16 84.9888 51.16C84.4448 51.16 83.9381 51.0427 83.4688 50.808C83.0101 50.5627 82.6581 50.2693 82.4128 49.928V54.344ZM84.6688 49.56C85.3621 49.56 85.9328 49.3147 86.3808 48.824C86.8288 48.3333 87.0528 47.7253 87.0528 47C87.0528 46.2747 86.8288 45.6667 86.3808 45.176C85.9328 44.6853 85.3621 44.44 84.6688 44.44C83.9648 44.44 83.3888 44.6853 82.9408 45.176C82.4928 45.6667 82.2688 46.2747 82.2688 47C82.2688 47.7253 82.4928 48.3333 82.9408 48.824C83.3888 49.3147 83.9648 49.56 84.6688 49.56ZM93.9171 51.16C92.8291 51.16 91.9118 50.7547 91.1651 49.944C90.4291 49.1333 90.0611 48.152 90.0611 47C90.0611 45.848 90.4291 44.8667 91.1651 44.056C91.9118 43.2453 92.8291 42.84 93.9171 42.84C94.4611 42.84 94.9625 42.9627 95.4211 43.208C95.8798 43.4427 96.2318 43.7307 96.4771 44.072V43H98.2371V51H96.4771V49.928C96.2318 50.2693 95.8798 50.5627 95.4211 50.808C94.9625 51.0427 94.4611 51.16 93.9171 51.16ZM92.5251 48.824C92.9731 49.3147 93.5438 49.56 94.2371 49.56C94.9305 49.56 95.5011 49.3147 95.9491 48.824C96.3971 48.3333 96.6211 47.7253 96.6211 47C96.6211 46.2747 96.3971 45.6667 95.9491 45.176C95.5011 44.6853 94.9305 44.44 94.2371 44.44C93.5438 44.44 92.9731 44.6853 92.5251 45.176C92.0771 45.6667 91.8531 46.2747 91.8531 47C91.8531 47.7253 92.0771 48.3333 92.5251 48.824ZM109.07 49.432V53H107.47V51H100.622V43H102.382V49.432H106.046V43H107.806V49.432H109.07ZM112.315 51H110.747V43H112.507V48.328L116.587 43H118.155V51H116.395V45.672L112.315 51ZM119.232 51L122.224 47.928C121.68 47.736 121.258 47.4373 120.96 47.032C120.661 46.6267 120.512 46.152 120.512 45.608C120.512 44.84 120.768 44.216 121.28 43.736C121.792 43.2453 122.512 43 123.44 43H126.672V51H124.912V48.264H124.016L121.312 51H119.232ZM123.536 46.792H124.912V44.488H123.536C122.65 44.488 122.208 44.8827 122.208 45.672C122.208 46.024 122.325 46.3013 122.56 46.504C122.805 46.696 123.13 46.792 123.536 46.792Z" fill="white"/>
</svg>
