<svg width="378" height="213" viewBox="0 0 378 213" fill="none" xmlns="http://www.w3.org/2000/svg">
<g filter="url(#filter0_b_2446_612)">
<ellipse cx="188.622" cy="106.729" rx="178" ry="67.5" transform="rotate(-13 188.622 106.729)" fill="white" fill-opacity="0.19"/>
<path d="M361.086 66.9124C363.096 75.6189 360.387 85.1001 353.523 94.8594C346.659 104.618 335.702 114.556 321.442 124.09C292.928 143.155 251.388 160.487 203.581 171.524C155.775 182.561 110.841 185.194 76.855 180.558C59.8583 178.239 45.6545 174.11 35.2071 168.348C24.7592 162.586 18.1686 155.252 16.1586 146.545C14.1485 137.838 16.8569 128.357 23.7214 118.598C30.5855 108.839 41.5418 98.9017 55.8019 89.3671C84.316 70.302 125.856 52.9701 173.663 41.9331C221.469 30.8961 266.403 28.2639 300.389 32.8996C317.386 35.218 331.59 39.347 342.037 45.109C352.485 50.8714 359.076 58.2058 361.086 66.9124Z" stroke="#D9FF5A" stroke-width="2"/>
</g>
<path d="M366.139 98.07C366.451 107 361.984 115.79 353.383 124.061C344.783 132.33 332.132 139.995 316.314 146.633C284.686 159.907 240.602 168.994 191.568 170.707C142.534 172.419 97.9233 166.429 65.4464 155.394C49.2044 149.875 36.0494 143.111 26.8934 135.462C17.737 127.812 12.667 119.355 12.3551 110.424C12.0433 101.494 16.511 92.7041 25.1115 84.434C33.7115 76.1643 46.3627 68.4998 62.1802 61.8613C93.8082 48.5873 137.892 39.5001 186.926 37.7878C235.961 36.0755 280.571 42.0654 313.048 53.1008C329.29 58.6198 342.445 65.3831 351.601 73.0327C360.758 80.6828 365.828 89.1399 366.139 98.07Z" stroke="#D9FF5A" stroke-width="2"/>
<path fill-rule="evenodd" clip-rule="evenodd" d="M135.84 97.9405L135.64 100.39C135.6 100.86 135.97 101.25 136.44 101.25H151.75C152.17 101.25 152.52 100.93 152.55 100.51C152.68 98.7405 151.33 97.3005 149.56 97.3005H137.27C137.17 96.8605 136.97 96.4405 136.66 96.0905C136.16 95.5605 135.46 95.2505 134.74 95.2505H133C132.59 95.2505 132.25 95.5905 132.25 96.0005C132.25 96.4105 132.59 96.7505 133 96.7505H134.74C135.05 96.7505 135.34 96.8805 135.55 97.1005C135.76 97.3305 135.86 97.6305 135.84 97.9405ZM141 114.75C141 115.717 140.216 116.5 139.25 116.5C138.284 116.5 137.5 115.717 137.5 114.75C137.5 113.784 138.284 113 139.25 113C140.216 113 141 113.784 141 114.75ZM149 114.75C149 115.717 148.216 116.5 147.25 116.5C146.284 116.5 145.5 115.717 145.5 114.75C145.5 113.784 146.284 113 147.25 113C148.216 113 149 113.784 149 114.75ZM136.17 102.75H151.51C151.98 102.75 152.34 103.14 152.3 103.6L151.97 108.27C151.86 109.77 150.54 111 149.04 111H137.92C136.21 111 134.87 109.54 135.01 107.83L135.37 103.48C135.41 103.07 135.75 102.75 136.17 102.75Z" fill="#D9FF5A"/>
<path d="M176.96 111L170.06 104.36V111H167.74V96.8H170.06V102.92L175.76 96.8H178.72L172.4 103.6L180.12 111H176.96ZM189.229 101L184.029 112.54C183.589 113.54 183.076 114.26 182.489 114.7C181.916 115.153 181.196 115.38 180.329 115.38C179.796 115.38 179.389 115.347 179.109 115.28V113.38C179.509 113.407 179.836 113.42 180.089 113.42C180.822 113.42 181.422 112.933 181.889 111.96L182.549 110.5L178.229 101H180.649L183.789 107.94L186.789 101H189.229ZM190.761 111V101H199.781V111H197.581V102.96H192.961V111H190.761ZM204.694 111H202.734V101H204.934V107.66L210.034 101H211.994V111H209.794V104.34L204.694 111ZM216.82 111V102.96H213.82V101H222.16V102.96H219.02V111H216.82ZM224.003 111V101H226.203V104.3H228.303C229.517 104.3 230.43 104.64 231.043 105.32C231.67 105.987 231.983 106.753 231.983 107.62C231.983 108.5 231.67 109.287 231.043 109.98C230.43 110.66 229.517 111 228.303 111H224.003ZM226.203 106.24V109.06H228.123C228.683 109.06 229.11 108.94 229.403 108.7C229.71 108.447 229.863 108.093 229.863 107.64C229.863 106.707 229.283 106.24 228.123 106.24H226.203Z" fill="white"/>
<defs>
<filter id="filter0_b_2446_612" x="-15.7586" y="-0.552544" width="408.763" height="214.563" filterUnits="userSpaceOnUse" color-interpolation-filters="sRGB">
<feFlood flood-opacity="0" result="BackgroundImageFix"/>
<feGaussianBlur in="BackgroundImageFix" stdDeviation="15.1352"/>
<feComposite in2="SourceAlpha" operator="in" result="effect1_backgroundBlur_2446_612"/>
<feBlend mode="normal" in="SourceGraphic" in2="effect1_backgroundBlur_2446_612" result="shape"/>
</filter>
</defs>
</svg>
