<svg width="24" height="25" viewBox="0 0 24 25" fill="none" xmlns="http://www.w3.org/2000/svg">
<path fill-rule="evenodd" clip-rule="evenodd" d="M4.84 4.82818L4.64 7.27818C4.6 7.74818 4.97 8.13818 5.44 8.13818H20.75C21.17 8.13818 21.52 7.81818 21.55 7.39818C21.68 5.62818 20.33 4.18818 18.56 4.18818H6.27C6.17 3.74818 5.97 3.32818 5.66 2.97818C5.16 2.44818 4.46 2.13818 3.74 2.13818H2C1.59 2.13818 1.25 2.47818 1.25 2.88818C1.25 3.29818 1.59 3.63818 2 3.63818H3.74C4.05 3.63818 4.34 3.76818 4.55 3.98818C4.76 4.21818 4.86 4.51818 4.84 4.82818ZM10 21.6382C10 22.6047 9.2165 23.3882 8.25 23.3882C7.2835 23.3882 6.5 22.6047 6.5 21.6382C6.5 20.6717 7.2835 19.8882 8.25 19.8882C9.2165 19.8882 10 20.6717 10 21.6382ZM18 21.6382C18 22.6047 17.2165 23.3882 16.25 23.3882C15.2835 23.3882 14.5 22.6047 14.5 21.6382C14.5 20.6717 15.2835 19.8882 16.25 19.8882C17.2165 19.8882 18 20.6717 18 21.6382ZM5.17005 9.63818H20.5101C20.9801 9.63818 21.3401 10.0282 21.3001 10.4882L20.9701 15.1582C20.8601 16.6582 19.5401 17.8882 18.0401 17.8882H6.92005C5.21005 17.8882 3.87005 16.4282 4.01005 14.7182L4.37005 10.3682C4.41005 9.95818 4.75005 9.63818 5.17005 9.63818Z" fill="#D9FF5A"/>
</svg>
